<svg width="27" height="35" viewBox="0 0 27 35" fill="none" xmlns="http://www.w3.org/2000/svg">
<path d="M16.8804 9.67868C17.8993 9.67961 18.9066 9.90086 19.8365 10.3279C20.7664 10.7549 21.5981 11.3782 22.2773 12.1571L24.4038 10.1909C23.0427 8.63845 21.2569 7.54282 19.2794 7.04706C17.3021 6.55125 15.2249 6.6783 13.3189 7.41161C11.4129 8.14492 9.76673 9.45042 8.59513 11.1578C7.42349 12.8651 6.78089 14.895 6.75109 16.9826C6.72128 19.0702 7.30573 21.1186 8.4281 22.8603C9.55052 24.6021 11.1587 25.9565 13.043 26.7467C14.9272 27.5369 16.9999 27.7263 18.9906 27.2901C20.9813 26.8538 22.7976 25.8123 24.2025 24.3014L22.1243 22.2773C21.2964 23.1653 20.2669 23.829 19.1279 24.2091C17.9888 24.5892 16.7757 24.674 15.5969 24.4557C14.4181 24.2374 13.3105 23.723 12.3729 22.9584C11.4353 22.1938 10.6971 21.2029 10.2242 20.0741C9.7513 18.9453 9.55846 17.714 9.66293 16.4902C9.76745 15.2663 10.166 14.088 10.8229 13.0608C11.4799 12.0335 12.3748 11.1892 13.4277 10.6033C14.4805 10.0174 15.6585 9.70827 16.8564 9.70345L16.8804 9.67868Z" fill="white"/>
<path d="M7.26923 7.22221L5.17123 5.19238C3.53228 6.75797 2.23176 8.61889 1.34429 10.6683C0.456872 12.7177 0 14.9153 0 17.1347C0 19.3541 0.456872 21.5516 1.34429 23.601C2.23176 25.6505 3.53228 27.5114 5.17123 29.077L7.26923 27.0472C5.90277 25.751 4.81789 24.2074 4.07741 22.5059C3.33699 20.8044 2.95572 18.9787 2.95572 17.1347C2.95572 15.2907 3.33699 13.465 4.07741 11.7635C4.81789 10.0619 5.90277 8.51837 7.26923 7.22221Z" fill="white"/>
<path d="M27.0002 3.36219C24.1396 1.17358 20.6829 -0.00445274 17.1348 1.26479e-05V2.94711C20.0624 2.94431 22.9152 3.91247 25.2803 5.71155L27.0002 3.36219Z" fill="white"/>
<path d="M17.1348 31.3621V34.2695C20.4538 34.2732 23.7018 33.3055 26.4809 31.4849L24.8484 29.0771C22.5519 30.572 19.8723 31.3658 17.1348 31.3621Z" fill="white"/>
<path d="M17.1346 27.7708C14.8862 27.7693 12.6926 27.0969 10.8506 25.8446C9.00867 24.5922 7.60737 22.8204 6.83631 20.769L4.15381 21.979C5.16397 24.5266 6.94493 26.7171 9.2621 28.2622C11.5793 29.8072 14.3239 30.6343 17.1346 30.6344V27.7708Z" fill="white"/>
<path d="M6.49936 16.6155C6.67351 13.8841 7.86951 11.3219 9.84461 9.4488C11.8197 7.57573 14.426 6.53197 17.1348 6.52932V3.63477C13.6659 3.63466 10.3299 4.98217 7.81696 7.39841C5.30404 9.8147 3.80663 13.1147 3.63477 16.6155H6.49936Z" fill="white"/>
</svg>
