<svg width="54" height="69" viewBox="0 0 54 69" fill="none" xmlns="http://www.w3.org/2000/svg">
<path d="M33.5593 19.2418C35.5849 19.2437 37.5874 19.6835 39.436 20.5324C41.2847 21.3815 42.9382 22.6206 44.2886 24.169L48.5162 20.2601C45.8101 17.1738 42.2599 14.9956 38.3286 14.01C34.3975 13.0243 30.2679 13.2769 26.4787 14.7348C22.6896 16.1926 19.4168 18.788 17.0877 22.1823C14.7584 25.5767 13.4808 29.6122 13.4216 33.7625C13.3623 37.9127 14.5242 41.9849 16.7556 45.4476C18.987 48.9104 22.1842 51.603 25.9302 53.174C29.676 54.7449 33.7967 55.1213 37.7544 54.2541C41.712 53.3869 45.3229 51.3163 48.1159 48.3125L43.9843 44.2886C42.3384 46.0539 40.2918 47.3733 38.0273 48.129C35.7628 48.8847 33.351 49.0532 31.0075 48.6192C28.664 48.1854 26.462 47.1627 24.598 45.6426C22.7341 44.1225 21.2664 42.1524 20.3264 39.9084C19.3862 37.6644 19.0028 35.2164 19.2105 32.7834C19.4183 30.3502 20.2105 28.0078 21.5166 25.9656C22.8227 23.9233 24.6018 22.2447 26.695 21.08C28.7881 19.9152 31.13 19.3006 33.5114 19.291L33.5593 19.2418Z" fill="#365C2C"/>
<path d="M14.4516 14.3582L10.2807 10.3228C7.02235 13.4352 4.43685 17.1348 2.67252 21.2093C0.908284 25.2836 0 29.6524 0 34.0647C0 38.477 0.908284 42.8458 2.67252 46.9201C4.43685 50.9945 7.02235 54.6941 10.2807 57.8066L14.4516 53.7712C11.735 51.1944 9.57821 48.1257 8.10611 44.7429C6.63411 41.3602 5.87613 37.7306 5.87613 34.0647C5.87613 30.3987 6.63411 26.7692 8.10611 23.3865C9.57821 20.0037 11.735 16.935 14.4516 14.3582Z" fill="#365C2C"/>
<path d="M53.6778 6.6842C47.9908 2.33313 41.1189 -0.00885227 34.0649 2.51447e-05V5.85902C39.8853 5.85344 45.5567 7.77819 50.2587 11.3549L53.6778 6.6842Z" fill="#365C2C"/>
<path d="M34.0649 62.3492V68.1292C40.6633 68.1366 47.1206 66.2128 52.6456 62.5934L49.4001 57.8066C44.8345 60.7785 39.5072 62.3566 34.0649 62.3492Z" fill="#365C2C"/>
<path d="M34.0633 55.2099C29.5934 55.2069 25.2323 53.8702 21.5705 51.3805C17.9085 48.8908 15.1227 45.3683 13.5898 41.29L8.25684 43.6955C10.2651 48.7602 13.8057 53.1152 18.4124 56.1868C23.019 59.2584 28.4756 60.9026 34.0633 60.9029V55.2099Z" fill="#365C2C"/>
<path d="M12.921 33.0325C13.2673 27.6023 15.645 22.5085 19.5716 18.7847C23.4982 15.0609 28.6797 12.9859 34.0648 12.9806V7.22607C27.1686 7.22587 20.5363 9.90478 15.5405 14.7084C10.5447 19.5121 7.56775 26.0727 7.22607 33.0325H12.921Z" fill="#365C2C"/>
</svg>
